<svg width="52" height="51" xmlns="http://www.w3.org/2000/svg" xmlns:xlink="http://www.w3.org/1999/xlink" xml:space="preserve" overflow="hidden"><g transform="translate(-36 -260)"><path d="M36.125 16.0438C34.85 16.0438 33.7875 14.9813 33.8406 13.6531 33.8406 12.3781 34.9031 11.3156 36.1781 11.3156 37.4531 11.3156 38.5156 12.3781 38.5156 13.6531 38.5156 14.2906 38.25 14.875 37.825 15.3 37.3469 15.7781 36.7625 16.0438 36.125 16.0438ZM33.8406 8.65937C32.6719 9.08438 31.7687 9.9875 31.1844 11.05 30.4406 12.4844 30.3344 14.1313 30.9188 15.6187L33.4688 21.1437 35.1687 24.65C35.3281 25.0219 35.7 25.2344 36.125 25.2344 36.55 25.2344 36.9219 25.0219 37.0813 24.65L38.7812 21.1437 41.3313 15.6719C41.5969 15.0344 41.7031 14.3438 41.7031 13.6531 41.7031 9.93438 37.8781 7.11875 33.8406 8.65937Z" transform="matrix(1.01961 0 0 1 36 260)"/><path d="M24.4375 38.675 15.9375 34.425 15.9375 17.1063 24.4375 21.3563 24.4375 38.675ZM13.8125 34.425 7.4375 37.6125 7.4375 20.2938 13.8125 17.1063 13.8125 34.425ZM43.2438 16.575 43.2438 16.575 41.9156 19.4437 43.5625 20.2938 43.5625 37.6125 37.1875 34.425 37.1875 27.3594 35.0625 27.3594 35.0625 34.425 26.5625 38.675 26.5625 21.3563 30.3344 19.4437 29.0062 16.575 25.5 18.3281 14.875 13.0156 4.25 18.3281 4.25 42.7656 14.875 37.4531 25.5 42.7656 36.125 37.4531 46.75 42.7656 46.75 18.3281 43.2438 16.575Z" transform="matrix(1.01961 0 0 1 36 260)"/></g></svg>