<svg width="109" height="94" xmlns="http://www.w3.org/2000/svg" xmlns:xlink="http://www.w3.org/1999/xlink" xml:space="preserve" overflow="hidden"><defs><clipPath id="clip0"><rect x="164" y="144" width="109" height="94"/></clipPath></defs><g clip-path="url(#clip0)" transform="translate(-164 -144)"><path d="M0 7.9999C-3.46929e-15 3.58168 3.58167 0 7.99989 0L101 0C105.418-1.73465e-15 109 3.58168 109 7.9999L109 7.9999C109 12.4181 105.418 15.9998 101 15.9998L7.99989 15.9998C3.58167 15.9998 0 12.4181 0 7.9999Z" fill-rule="evenodd" transform="matrix(-1 1.22465e-16 1.22465e-16 1 273 144)"/><path d="M0 8.00014C-1.73464e-15 3.58179 3.58178 0 8.00012 0L101 0C105.418-1.73465e-15 109 3.58179 109 8.00014L109 8.00014C109 12.4185 105.418 16.0003 101 16.0003L8.00012 16.0002C3.58178 16.0002 0 12.4184 0 8.00002Z" fill-rule="evenodd" transform="matrix(-1 1.22465e-16 1.22465e-16 1 273 184)"/><path d="M0 7.9999C-3.46929e-15 3.58168 3.58167 0 7.99989 0L101 0C105.418-1.73465e-15 109 3.58168 109 7.9999L109 7.9999C109 12.4181 105.418 15.9998 101 15.9998L7.99989 15.9998C3.58167 15.9998 0 12.4181 0 7.9999Z" fill-rule="evenodd" transform="matrix(-1 1.22465e-16 1.22465e-16 1 273 222)"/></g></svg>