<svg width="296" height="1102" xmlns="http://www.w3.org/2000/svg" xmlns:xlink="http://www.w3.org/1999/xlink" xml:space="preserve" overflow="hidden"><defs><filter id="fx0" x="-10%" y="-10%" width="120%" height="120%" filterUnits="userSpaceOnUse" primitiveUnits="userSpaceOnUse"><feComponentTransfer color-interpolation-filters="sRGB"><feFuncR type="discrete" tableValues="0 0"/><feFuncG type="discrete" tableValues="0 0"/><feFuncB type="discrete" tableValues="0 0"/><feFuncA type="linear" slope="0.4" intercept="0"/></feComponentTransfer><feGaussianBlur stdDeviation="6.11111 6.11111"/></filter><clipPath id="clip1"><rect x="80" y="55" width="296" height="1102"/></clipPath></defs><g clip-path="url(#clip1)" transform="translate(-80 -55)"><g filter="url(#fx0)" transform="translate(79 54)"><g><path d="M19.7227 46.8533C19.7227 31.8694 31.8696 19.7227 46.8534 19.7227L250.592 19.7227C265.576 19.7227 277.723 31.8694 277.723 46.8533L277.723 1056.59C277.723 1071.58 265.576 1083.72 250.592 1083.72L46.8534 1083.72C31.8696 1083.72 19.7227 1071.58 19.7227 1056.59Z" fill="#FDE9F9" fill-rule="evenodd"/></g></g><path d="M89 91.1305C89 76.1467 101.147 63.9999 116.131 63.9999L319.869 63.9999C334.853 63.9999 347 76.1467 347 91.1305L347 1100.87C347 1115.85 334.853 1128 319.869 1128L116.131 1128C101.147 1128 89 1115.85 89 1100.87Z" fill="#FDE9F9" fill-rule="evenodd"/></g></svg>