<svg width="279" height="279" xmlns="http://www.w3.org/2000/svg" xmlns:xlink="http://www.w3.org/1999/xlink" xml:space="preserve" overflow="hidden"><defs><filter id="fx0" x="-10%" y="-10%" width="120%" height="120%" filterUnits="userSpaceOnUse" primitiveUnits="userSpaceOnUse"><feComponentTransfer color-interpolation-filters="sRGB"><feFuncR type="discrete" tableValues="0 0"/><feFuncG type="discrete" tableValues="0 0"/><feFuncB type="discrete" tableValues="0 0"/><feFuncA type="linear" slope="0.4" intercept="0"/></feComponentTransfer><feGaussianBlur stdDeviation="6.11111 6.11111"/></filter><clipPath id="clip1"><rect x="4836" y="-9" width="279" height="279"/></clipPath></defs><g clip-path="url(#clip1)" transform="translate(-4836 9)"><g filter="url(#fx0)" transform="translate(4835 -10)"><g><path d="M19.7227 140.223C19.7227 73.6724 73.6723 19.7227 140.223 19.7227 206.773 19.7227 260.723 73.6724 260.723 140.223 260.723 206.773 206.773 260.723 140.223 260.723 73.6723 260.723 19.7227 206.773 19.7227 140.223Z" fill="#FDE9F9" fill-rule="evenodd"/></g></g><path d="M4845 120.5C4845 53.9497 4898.95-1.53413e-14 4965.5-3.06825e-14 5032.05-6.1365e-14 5086 53.9497 5086 120.5 5086 187.05 5032.05 241 4965.5 241 4898.95 241 4845 187.05 4845 120.5Z" fill="#FDE9F9" fill-rule="evenodd"/></g></svg>