<svg width="52" height="52" xmlns="http://www.w3.org/2000/svg" xmlns:xlink="http://www.w3.org/1999/xlink" xml:space="preserve" overflow="hidden"><g transform="translate(-36 -209)"><path d="M82.5833 220.917 82.5833 247.458 41.4167 247.458 41.4167 220.917 38.1667 220.917 38.1667 251.25 57.125 251.25C57.125 252.171 57.8292 252.875 58.75 252.875L65.25 252.875C66.1708 252.875 66.875 252.171 66.875 251.25L85.8333 251.25 85.8333 220.917 82.5833 220.917Z"/><path d="M80.4167 217.667 43.5833 217.667 43.5833 245.292 80.4167 245.292 80.4167 217.667ZM46.8333 220.917 60.9167 220.917 60.9167 242.042 46.8333 242.042 46.8333 220.917ZM77.1667 242.042 63.0833 242.042 63.0833 220.917 77.1667 220.917 77.1667 242.042Z"/><path d="M66.3333 226.333 73.9167 226.333 73.9167 227.958 66.3333 227.958Z"/><path d="M66.3333 229.583 73.9167 229.583 73.9167 231.208 66.3333 231.208Z"/><path d="M66.3333 232.833 71.5875 232.833 71.5875 234.458 66.3333 234.458Z"/></g></svg>