<svg width="4438" height="2513" xmlns="http://www.w3.org/2000/svg" xmlns:xlink="http://www.w3.org/1999/xlink" xml:space="preserve" overflow="hidden"><defs><filter id="fx0" x="-10%" y="-10%" width="120%" height="120%" filterUnits="userSpaceOnUse" primitiveUnits="userSpaceOnUse"><feComponentTransfer color-interpolation-filters="sRGB"><feFuncR type="discrete" tableValues="0 0"/><feFuncG type="discrete" tableValues="0 0"/><feFuncB type="discrete" tableValues="0 0"/><feFuncA type="linear" slope="0.4" intercept="0"/></feComponentTransfer><feGaussianBlur stdDeviation="6.11111 6.11111"/></filter><clipPath id="clip1"><rect x="-19" y="-5" width="4438" height="2513"/></clipPath></defs><g clip-path="url(#clip1)" transform="translate(19 5)"><g filter="url(#fx0)" transform="translate(-20 -6)"><g><path d="M20 19.75 4420 19.75 4420 2494.75 20 2494.75 20 19.75ZM1844.17 656.07C1731.37 656.07 1618.56 699.102 1532.5 785.167 1360.37 957.295 1360.37 1236.37 1532.5 1408.5L1908.33 1784.33 1908.33 1784.33 1913.36 1788.88 2219.39 2094.91 2514 1800.3 2531.67 1784.33 2531.67 1784.33 2531.68 1784.32 2907.5 1408.5C3079.63 1236.37 3079.63 957.295 2907.5 785.167 2821.44 699.102 2708.63 656.07 2595.83 656.07 2483.03 656.07 2370.23 699.102 2284.17 785.167L2220 849.333 2155.83 785.167C2069.77 699.102 1956.97 656.07 1844.17 656.07Z" fill="#FFFFFF" fill-rule="evenodd"/></g></g><path d="M0 0 4400 0 4400 2475 0 2475 0 0ZM1824.17 636.32C1711.37 636.32 1598.56 679.352 1512.5 765.417 1340.37 937.545 1340.37 1216.62 1512.5 1388.75L1888.33 1764.58 1888.33 1764.58 1893.36 1769.13 2199.39 2075.16 2494 1780.55 2511.67 1764.58 2511.67 1764.58 2511.68 1764.57 2887.5 1388.75C3059.63 1216.62 3059.63 937.545 2887.5 765.417 2801.44 679.352 2688.63 636.32 2575.83 636.32 2463.03 636.32 2350.23 679.352 2264.17 765.417L2200 829.583 2135.83 765.417C2049.77 679.352 1936.97 636.32 1824.17 636.32Z" fill="#FFFFFF" fill-rule="evenodd"/></g></svg>