<svg width="4253" height="2386" xmlns="http://www.w3.org/2000/svg" xmlns:xlink="http://www.w3.org/1999/xlink" xml:space="preserve" overflow="hidden"><defs><clipPath id="clip0"><rect x="72" y="52" width="4253" height="2386"/></clipPath></defs><g clip-path="url(#clip0)" transform="translate(-72 -52)"><path d="M71.9998 51.9999 4325 51.9999 4325 2438 71.9998 2438 71.9998 51.9999ZM1835.22 665.438C1726.19 665.438 1617.16 706.923 1533.97 789.892 1367.59 955.831 1367.59 1224.87 1533.97 1390.81L1897.25 1753.13 1897.25 1753.13 1902.1 1757.51 2197.91 2052.54 2482.68 1768.53 2499.75 1753.13 2499.75 1753.13 2499.76 1753.12 2863.03 1390.81C3029.41 1224.87 3029.41 955.831 2863.03 789.892 2779.84 706.923 2670.81 665.438 2561.78 665.438 2452.74 665.438 2343.71 706.923 2260.52 789.892L2198.5 851.752 2136.48 789.892C2053.29 706.923 1944.26 665.438 1835.22 665.438Z" fill="#C4ABBE" fill-rule="evenodd"/></g></svg>